<mxfile host="app.diagrams.net" agent="Mozilla/5.0 (Macintosh; Intel Mac OS X 10_15_7) AppleWebKit/537.36 (KHTML, like Gecko) Chrome/140.0.0.0 Safari/537.36" version="28.2.7">
  <diagram name="第 1 页" id="nRfhweTOWR34aA5kixs8">
    <mxGraphModel dx="887" dy="572" grid="1" gridSize="10" guides="1" tooltips="1" connect="1" arrows="1" fold="1" page="1" pageScale="1" pageWidth="827" pageHeight="1169" math="0" shadow="0">
      <root>
        <mxCell id="0" />
        <mxCell id="1" parent="0" />
        <mxCell id="_MZxULUl_nsnlx-NlXs9-1" value="" style="rounded=0;whiteSpace=wrap;html=1;fillColor=#f5f5f5;strokeColor=#666666;fillStyle=auto;fontColor=#333333;" vertex="1" parent="1">
          <mxGeometry x="120" y="100" width="650" height="120" as="geometry" />
        </mxCell>
        <mxCell id="_MZxULUl_nsnlx-NlXs9-5" value="" style="shape=flexArrow;endArrow=classic;html=1;rounded=0;" edge="1" parent="1">
          <mxGeometry width="50" height="50" relative="1" as="geometry">
            <mxPoint x="410" y="240" as="sourcePoint" />
            <mxPoint x="410" y="280" as="targetPoint" />
          </mxGeometry>
        </mxCell>
        <mxCell id="_MZxULUl_nsnlx-NlXs9-6" value="&lt;font style=&quot;font-size: 18px;&quot;&gt;Original Audio and Label&lt;/font&gt;" style="text;html=1;whiteSpace=wrap;strokeColor=none;fillColor=none;align=center;verticalAlign=middle;rounded=0;" vertex="1" parent="1">
          <mxGeometry x="90" y="30" width="260" height="30" as="geometry" />
        </mxCell>
        <mxCell id="_MZxULUl_nsnlx-NlXs9-7" value="" style="rounded=0;whiteSpace=wrap;html=1;strokeColor=#b85450;fillColor=#f8cecc;" vertex="1" parent="1">
          <mxGeometry x="270" y="310" width="80" height="40" as="geometry" />
        </mxCell>
        <mxCell id="_MZxULUl_nsnlx-NlXs9-8" value="" style="rounded=0;whiteSpace=wrap;html=1;fillColor=#f8cecc;strokeColor=#b85450;" vertex="1" parent="1">
          <mxGeometry x="350" y="310" width="120" height="40" as="geometry" />
        </mxCell>
        <mxCell id="_MZxULUl_nsnlx-NlXs9-9" value="" style="rounded=0;whiteSpace=wrap;html=1;fillColor=#f8cecc;strokeColor=#b85450;" vertex="1" parent="1">
          <mxGeometry x="470" y="310" width="200" height="40" as="geometry" />
        </mxCell>
        <mxCell id="_MZxULUl_nsnlx-NlXs9-10" value="&lt;font style=&quot;font-size: 18px;&quot;&gt;Spliced ​​Sample&lt;/font&gt;" style="text;html=1;whiteSpace=wrap;strokeColor=none;fillColor=none;align=center;verticalAlign=middle;rounded=0;" vertex="1" parent="1">
          <mxGeometry x="120" y="270" width="140" height="30" as="geometry" />
        </mxCell>
        <mxCell id="_MZxULUl_nsnlx-NlXs9-11" value="&lt;font style=&quot;font-size: 15px;&quot;&gt;magumwan&lt;/font&gt;" style="rounded=0;whiteSpace=wrap;html=1;strokeColor=#6c8ebf;fillColor=#dae8fc;" vertex="1" parent="1">
          <mxGeometry x="270" y="370" width="80" height="40" as="geometry" />
        </mxCell>
        <mxCell id="_MZxULUl_nsnlx-NlXs9-12" value="&lt;font style=&quot;font-size: 15px;&quot;&gt;mod wu&lt;/font&gt;" style="rounded=0;whiteSpace=wrap;html=1;fillColor=#dae8fc;strokeColor=#6c8ebf;" vertex="1" parent="1">
          <mxGeometry x="350" y="370" width="120" height="40" as="geometry" />
        </mxCell>
        <mxCell id="_MZxULUl_nsnlx-NlXs9-13" value="&lt;font style=&quot;font-size: 15px; line-height: 22.5px;&quot;&gt;linyjerriwa guduruwu&lt;/font&gt;" style="rounded=0;whiteSpace=wrap;html=1;fillColor=#dae8fc;strokeColor=#6c8ebf;" vertex="1" parent="1">
          <mxGeometry x="470" y="370" width="200" height="40" as="geometry" />
        </mxCell>
        <mxCell id="_MZxULUl_nsnlx-NlXs9-14" value="&lt;font style=&quot;font-size: 15px;&quot;&gt;When&lt;/font&gt;" style="rounded=0;whiteSpace=wrap;html=1;strokeColor=#82b366;fillColor=#d5e8d4;" vertex="1" parent="1">
          <mxGeometry x="270" y="430" width="80" height="40" as="geometry" />
        </mxCell>
        <mxCell id="_MZxULUl_nsnlx-NlXs9-15" value="&lt;font style=&quot;font-size: 15px;&quot;&gt;they cut&lt;/font&gt;" style="rounded=0;whiteSpace=wrap;html=1;fillColor=#d5e8d4;strokeColor=#82b366;" vertex="1" parent="1">
          <mxGeometry x="350" y="430" width="120" height="40" as="geometry" />
        </mxCell>
        <mxCell id="_MZxULUl_nsnlx-NlXs9-16" value="&lt;font style=&quot;font-size: 15px;&quot;&gt;ironwood of nullanullas&lt;/font&gt;" style="rounded=0;whiteSpace=wrap;html=1;fillColor=#d5e8d4;strokeColor=#82b366;" vertex="1" parent="1">
          <mxGeometry x="470" y="430" width="200" height="40" as="geometry" />
        </mxCell>
        <mxCell id="_MZxULUl_nsnlx-NlXs9-17" value="&lt;font style=&quot;font-size: 15px;&quot;&gt;Audio&lt;/font&gt;" style="text;html=1;whiteSpace=wrap;strokeColor=none;fillColor=none;align=center;verticalAlign=middle;rounded=0;" vertex="1" parent="1">
          <mxGeometry x="180" y="315" width="60" height="30" as="geometry" />
        </mxCell>
        <mxCell id="_MZxULUl_nsnlx-NlXs9-18" value="&lt;font style=&quot;font-size: 15px;&quot;&gt;Transcript&lt;/font&gt;" style="text;html=1;whiteSpace=wrap;strokeColor=none;fillColor=none;align=center;verticalAlign=middle;rounded=0;" vertex="1" parent="1">
          <mxGeometry x="180" y="375" width="60" height="30" as="geometry" />
        </mxCell>
        <mxCell id="_MZxULUl_nsnlx-NlXs9-19" value="&lt;font style=&quot;font-size: 15px;&quot;&gt;Translation&lt;/font&gt;" style="text;html=1;whiteSpace=wrap;strokeColor=none;fillColor=none;align=center;verticalAlign=middle;rounded=0;" vertex="1" parent="1">
          <mxGeometry x="180" y="435" width="60" height="30" as="geometry" />
        </mxCell>
        <mxCell id="_MZxULUl_nsnlx-NlXs9-20" value="" style="rounded=0;whiteSpace=wrap;html=1;fillColor=#f8cecc;strokeColor=#b85450;" vertex="1" parent="1">
          <mxGeometry x="200" y="100" width="80" height="40" as="geometry" />
        </mxCell>
        <mxCell id="_MZxULUl_nsnlx-NlXs9-22" value="&lt;span style=&quot;font-size: 15px;&quot;&gt;magumwan&lt;/span&gt;" style="rounded=0;whiteSpace=wrap;html=1;fillColor=#dae8fc;strokeColor=#6c8ebf;" vertex="1" parent="1">
          <mxGeometry x="200" y="140" width="80" height="40" as="geometry" />
        </mxCell>
        <mxCell id="_MZxULUl_nsnlx-NlXs9-23" value="&lt;span style=&quot;font-size: 15px;&quot;&gt;When&lt;/span&gt;" style="rounded=0;whiteSpace=wrap;html=1;strokeWidth=1;fillColor=#d5e8d4;strokeColor=#82b366;" vertex="1" parent="1">
          <mxGeometry x="200" y="180" width="80" height="40" as="geometry" />
        </mxCell>
        <mxCell id="_MZxULUl_nsnlx-NlXs9-24" value="&lt;span style=&quot;font-size: 15px;&quot;&gt;they cut&lt;/span&gt;" style="rounded=0;whiteSpace=wrap;html=1;fillColor=#d5e8d4;strokeColor=#82b366;" vertex="1" parent="1">
          <mxGeometry x="320" y="180" width="120" height="40" as="geometry" />
        </mxCell>
        <mxCell id="_MZxULUl_nsnlx-NlXs9-25" value="&lt;span style=&quot;color: rgb(0, 0, 0); font-family: Helvetica; font-size: 15px; font-style: normal; font-variant-ligatures: normal; font-variant-caps: normal; font-weight: 400; letter-spacing: normal; orphans: 2; text-align: center; text-indent: 0px; text-transform: none; widows: 2; word-spacing: 0px; -webkit-text-stroke-width: 0px; white-space: normal; text-decoration-thickness: initial; text-decoration-style: initial; text-decoration-color: initial; float: none; display: inline !important;&quot;&gt;mod wu&lt;/span&gt;" style="rounded=0;whiteSpace=wrap;html=1;fillColor=#dae8fc;strokeColor=#6c8ebf;" vertex="1" parent="1">
          <mxGeometry x="320" y="140" width="120" height="40" as="geometry" />
        </mxCell>
        <mxCell id="_MZxULUl_nsnlx-NlXs9-26" value="" style="rounded=0;whiteSpace=wrap;html=1;fillColor=#f8cecc;strokeColor=#b85450;" vertex="1" parent="1">
          <mxGeometry x="320" y="100" width="120" height="40" as="geometry" />
        </mxCell>
        <mxCell id="_MZxULUl_nsnlx-NlXs9-27" value="&lt;span style=&quot;font-size: 15px;&quot;&gt;ironwood of nullanullas&lt;/span&gt;" style="rounded=0;whiteSpace=wrap;html=1;fillColor=#d5e8d4;strokeColor=#82b366;" vertex="1" parent="1">
          <mxGeometry x="540" y="180" width="200" height="40" as="geometry" />
        </mxCell>
        <mxCell id="_MZxULUl_nsnlx-NlXs9-28" value="&lt;span style=&quot;font-size: 15px;&quot;&gt;linyjerriwa guduruwu&lt;/span&gt;" style="rounded=0;whiteSpace=wrap;html=1;fillColor=#dae8fc;strokeColor=#6c8ebf;" vertex="1" parent="1">
          <mxGeometry x="540" y="140" width="200" height="40" as="geometry" />
        </mxCell>
        <mxCell id="_MZxULUl_nsnlx-NlXs9-29" value="" style="rounded=0;whiteSpace=wrap;html=1;fillColor=#f8cecc;strokeColor=#b85450;" vertex="1" parent="1">
          <mxGeometry x="540" y="100" width="200" height="40" as="geometry" />
        </mxCell>
      </root>
    </mxGraphModel>
  </diagram>
</mxfile>
